<svg width="1770" height="1770" xmlns="http://www.w3.org/2000/svg" xmlns:xlink="http://www.w3.org/1999/xlink" xml:space="preserve" overflow="hidden"><g transform="translate(-1246 -294)"><path d="M1637.81 1679 1392.95 1678.37C1344.93 1678.37 1306 1642.18 1306 1597.53L1306 434.842C1306 390.194 1344.93 354 1392.95 354L2528.89 354C2576.91 354 2615.84 390.194 2615.84 434.842 2616.4 500.509 2615.28 566.176 2615.84 631.842" stroke="#000000" stroke-width="120.312" stroke-miterlimit="8" fill="none" fill-rule="evenodd"/><path d="M1646 765.958C1646 717.932 1684.93 679 1732.96 679L2869.04 679C2917.07 679 2956 717.932 2956 765.958L2956 1917.04C2956 1965.07 2917.07 2004 2869.04 2004L1732.96 2004C1684.93 2004 1646 1965.07 1646 1917.04Z" stroke="#000000" stroke-width="120.312" stroke-miterlimit="8" fill="none" fill-rule="evenodd"/></g></svg>