<svg width="1925" height="1924" xmlns="http://www.w3.org/2000/svg" xmlns:xlink="http://www.w3.org/1999/xlink" xml:space="preserve" overflow="hidden"><g transform="translate(-1238 -276)"><path d="M1697.54 1810.44C1463.93 1843.44 1317.5 1708.95 1317.5 1583.76L1317.5 582.18C1317.5 456.988 1419.92 355.5 1546.25 355.5L2572.95 355.5C2699.29 355.5 2790.02 467.298 2779.7 705.905" stroke="#000000" stroke-width="159.271" stroke-linecap="round" stroke-miterlimit="8" fill="none" fill-rule="evenodd"/><path d="M1704.5 967.324C1704.5 849.784 1799.78 754.5 1917.32 754.5L2870.68 754.5C2988.22 754.5 3083.5 849.784 3083.5 967.324L3083.5 1907.68C3083.5 2025.22 2988.22 2120.5 2870.68 2120.5L1917.32 2120.5C1799.78 2120.5 1704.5 2025.22 1704.5 1907.68Z" stroke="#000000" stroke-width="159.271" stroke-miterlimit="8" fill="none" fill-rule="evenodd"/></g></svg>