<svg width="1154" height="1155" xmlns="http://www.w3.org/2000/svg" xmlns:xlink="http://www.w3.org/1999/xlink" xml:space="preserve" overflow="hidden"><defs><clipPath id="clip0"><rect x="1623" y="660" width="1154" height="1155"/></clipPath></defs><g id="g" clip-path="url(#clip0)" transform="translate(-1623 -660)"><path d="M2648.78 1686.67 1751.22 1686.67 1751.22 788.333 2071.78 788.333 2071.78 660 1751.22 660C1680.41 660 1623 717.457 1623 788.333L1623 1686.67C1623 1757.55 1680.41 1815 1751.22 1815L2648.78 1815C2719.6 1815 2777 1757.55 2777 1686.67L2777 1365.83 2648.78 1365.83Z" fill-rule="evenodd"/><path d="M2303.74 1607.14 2666.48 1244.4 2368.13 1244.4 2368.13 724.77 2239.35 724.769 2239.35 1244.4 1941 1244.4 2303.74 1607.14Z" fill-rule="evenodd" id="p"/></g></svg>