<svg width="1925" height="1924" xmlns="http://www.w3.org/2000/svg" xmlns:xlink="http://www.w3.org/1999/xlink" xml:space="preserve" overflow="hidden"><g transform="translate(-1238 -276)"><path d="M1917.54 754.235 2636.62 754.235 2792.96 756.85 2792.9 754.235 2870.52 754.235C2988.14 754.235 3083.5 849.537 3083.5 967.099L3083.5 1907.64C3083.5 2025.2 2988.14 2120.5 2870.52 2120.5L1917.54 2120.5C1799.91 2120.5 1704.56 2025.2 1704.56 1907.64L1704.56 1794.4 1707.65 1794.72C1707.29 1774.23 1706.46 1743.93 1705.42 1706.49L1704.56 1674.92 1704.56 967.099C1704.56 849.537 1799.91 754.235 1917.54 754.235ZM1546.26 355.5 2573.02 355.5C2691.46 355.5 2780.12 438.146 2791.68 701.699L2792.9 754.235 2636.62 754.235 2250.71 747.778C2077.09 752.835 1806.19 735.389 1739.23 787.189 1684.82 829.277 1696.05 1359.89 1703.74 1645.31L1704.56 1674.92 1704.56 1794.4 1638.4 1787.7C1483.07 1772.81 1372.06 1760.49 1317.5 1583.66L1317.5 582.161C1317.5 456.98 1419.92 355.5 1546.26 355.5Z" stroke="#000000" stroke-width="159.271" stroke-miterlimit="8" fill="none" fill-rule="evenodd"/></g></svg>