<svg width="1925" height="1924" xmlns="http://www.w3.org/2000/svg" xmlns:xlink="http://www.w3.org/1999/xlink" xml:space="preserve" overflow="hidden"><g transform="translate(-1238 -276)"><path d="M1474.71 1791.5C1348.4 1791.5 1317.5 1709.24 1317.5 1584.02L1317.5 582.228C1317.5 457.01 1419.9 355.5 1546.22 355.5L2572.78 355.5C2699.1 355.5 2779.5 374.509 2779.5 499.727" stroke="#000000" stroke-width="159.271" stroke-linecap="round" stroke-miterlimit="8" fill="none" fill-rule="evenodd"/><path d="M1704.5 967.324C1704.5 849.784 1799.78 754.5 1917.32 754.5L2870.68 754.5C2988.22 754.5 3083.5 849.784 3083.5 967.324L3083.5 1907.68C3083.5 2025.22 2988.22 2120.5 2870.68 2120.5L1917.32 2120.5C1799.78 2120.5 1704.5 2025.22 1704.5 1907.68Z" stroke="#000000" stroke-width="159.271" stroke-miterlimit="8" fill="none" fill-rule="evenodd"/></g></svg>