<svg width="1624" height="2302" xmlns="http://www.w3.org/2000/svg" xmlns:xlink="http://www.w3.org/1999/xlink" xml:space="preserve" overflow="hidden"><g transform="translate(-1388 -251)"><path d="M1474 1238C1474 837.041 1799.04 512 2200 512 2600.96 512 2926 837.041 2926 1238 2926 1638.96 2600.96 1964 2200 1964 1799.04 1964 1474 1638.96 1474 1238Z" fill="#00B0F0" fill-rule="evenodd"/><text fill="#FFFFFF" font-family="Comic Sans MS,Comic Sans MS_MSFontService,sans-serif" font-weight="700" font-size="1095" transform="matrix(1 0 0 1 2046.46 1620)">i</text><path d="M1623 1237.5C1623 918.556 1881.56 660 2200.5 660 2519.44 660 2778 918.556 2778 1237.5 2778 1556.44 2519.44 1815 2200.5 1815 1881.56 1815 1623 1556.44 1623 1237.5Z" stroke="#FFFFFF" stroke-width="91.6667" stroke-miterlimit="8" fill="none" fill-rule="evenodd"/></g></svg>