<svg width="503" height="504" xmlns="http://www.w3.org/2000/svg" xmlns:xlink="http://www.w3.org/1999/xlink" xml:space="preserve" overflow="hidden"><g transform="translate(-250 -90)"><path d="M-480.617 189.069C-488.226 189.124-495.809 189.862-503.276 191.271L-445.184 240.799-419.375 317.801-443.645 346.268-443.658 346.256-467.728 374.483-547.84 361.17-605.914 311.655C-606.989 350.258-590.425 387.389-560.9 412.564-522.437 445.352-468.399 452.54-423.087 430.89L-188.337 631.042C-166.748 649.45-134.548 646.888-116.141 625.298-97.7333 603.709-100.295 571.51-121.884 553.102L-356.634 352.949C-342.421 304.786-358.06 252.564-396.517 219.766-419.994 199.749-449.87 188.845-480.617 189.069ZM-173.311 213.948C-174.81 213.96-176.33 214.615-177.542 215.759L-226.897 262.345C-226.897 262.345-226.774 274.752-226.679 287.016L-304.021 377.727-280.434 397.837-203.193 307.245C-191.06 305.381-178.774 303.486-178.698 303.442L-140.131 247.656C-138.447 245.22-138.477 242.041-140.731 240.119L-170.004 215.159C-170.99 214.318-172.144 213.939-173.311 213.948ZM-404.932 466.451C-405.349 466.95-405.764 467.444-406.185 467.939-428.571 494.193-455.21 515.03-480.432 526.014L-495.68 543.897C-498.264 546.434-500.74 549.099-503.1 551.868-532.466 586.307-537.93 629.868-515.301 649.162-515.279 649.179-515.253 649.201-515.232 649.218L-515.236 649.227C-515.18 649.282-515.12 649.334-515.06 649.386-492.43 668.679-450.283 656.397-420.916 621.958-418.556 619.19-416.319 616.318-414.221 613.369L-398.974 595.485C-392.114 568.844-375.752 539.246-353.37 512.992-352.945 512.493-352.516 511.999-352.088 511.509ZM-159.864 571.738C-155.232 571.372-150.643 572.855-147.107 575.873-139.745 582.15-138.865 593.207-145.143 600.571-151.421 607.935-162.478 608.812-169.842 602.535-177.204 596.259-178.084 585.198-171.806 577.838-168.792 574.3-164.496 572.107-159.864 571.738Z" fill="#3DB74C" transform="matrix(1 0 0 1.00199 856.407 -82.633)"/></g></svg>