<svg width="1962" height="1926" xmlns="http://www.w3.org/2000/svg" xmlns:xlink="http://www.w3.org/1999/xlink" xml:space="preserve" overflow="hidden"><g transform="translate(-1227 -275)"><path d="M1638.31 1679.5 1393.45 1678.87C1345.43 1678.87 1306.5 1642.68 1306.5 1598.03L1306.5 435.342C1306.5 390.694 1345.43 354.5 1393.45 354.5L2529.39 354.5C2577.41 354.5 2616.34 390.694 2616.34 435.342 2616.9 501.009 2615.78 566.676 2616.34 632.342" stroke="#000000" stroke-width="159.271" stroke-miterlimit="8" fill="none" fill-rule="evenodd"/><path d="M1799.5 883.458C1799.5 835.432 1838.43 796.5 1886.46 796.5L3022.54 796.5C3070.57 796.5 3109.5 835.432 3109.5 883.458L3109.5 2034.54C3109.5 2082.57 3070.57 2121.5 3022.54 2121.5L1886.46 2121.5C1838.43 2121.5 1799.5 2082.57 1799.5 2034.54Z" stroke="#000000" stroke-width="159.271" stroke-miterlimit="8" fill="none" fill-rule="evenodd"/></g></svg>