<svg width="1925" height="1924" xmlns="http://www.w3.org/2000/svg" xmlns:xlink="http://www.w3.org/1999/xlink" xml:space="preserve" overflow="hidden"><g transform="translate(-1238 -276)"><path d="M1739.1 787.124C1672.15 838.917 1704.61 1630.61 1707.53 1794.5 1515.88 1772.76 1379.83 1785.53 1317.5 1583.47L1317.5 582.127C1317.5 456.965 1419.89 355.5 1546.19 355.5L2572.63 355.5C2698.93 355.5 2791.35 449.519 2792.5 756.79L2250.42 747.719C2076.85 752.775 1806.04 735.332 1739.1 787.124Z" stroke="#000000" stroke-width="159.271" stroke-linecap="round" stroke-linejoin="round" stroke-miterlimit="10" fill="none" fill-rule="evenodd"/><path d="M1704.5 967.324C1704.5 849.784 1799.78 754.5 1917.32 754.5L2870.68 754.5C2988.22 754.5 3083.5 849.784 3083.5 967.324L3083.5 1907.68C3083.5 2025.22 2988.22 2120.5 2870.68 2120.5L1917.32 2120.5C1799.78 2120.5 1704.5 2025.22 1704.5 1907.68Z" stroke="#000000" stroke-width="159.271" stroke-miterlimit="8" fill="none" fill-rule="evenodd"/></g></svg>