<svg width="1722" height="1819" xmlns="http://www.w3.org/2000/svg" xmlns:xlink="http://www.w3.org/1999/xlink" xml:space="preserve" overflow="hidden"><g transform="translate(-929 -422)"><path d="M1299.39 1907 1049.67 1906.31C1000.7 1906.31 961 1866.62 961 1817.66L961 542.652C961 493.691 1000.7 454 1049.67 454L2208.16 454C2257.13 454 2296.83 493.691 2296.83 542.652 2297.41 614.662 2296.26 686.673 2296.83 758.683" stroke="#000000" stroke-width="64.1667" stroke-miterlimit="8" fill="none" fill-rule="evenodd"/><path d="M1284 845.617C1284 796.675 1323.68 757 1372.62 757L2530.38 757C2579.32 757 2619 796.675 2619 845.617L2619 2120.38C2619 2169.32 2579.32 2209 2530.38 2209L1372.62 2209C1323.68 2209 1284 2169.32 1284 2120.38Z" stroke="#000000" stroke-width="64.1667" stroke-miterlimit="8" fill="none" fill-rule="evenodd"/></g></svg>