<svg width="782" height="584" xmlns="http://www.w3.org/2000/svg" xmlns:xlink="http://www.w3.org/1999/xlink" xml:space="preserve" overflow="hidden"><g transform="translate(-1835 -853)"><path d="M2494.75 1062.72C2488.19 1023.72 2465.96 988.798 2432.89 965.54 2398.61 942.344 2355.99 933.709 2314.94 941.644 2282.57 893.68 2227.36 864.682 2168.07 864.5 2154.48 864.477 2140.93 866.012 2127.71 869.072 2057.45 886.716 2004.87 943.152 1994.09 1012.49 1947.61 1014.06 1904.32 1035.7 1876.15 1071.43 1843.25 1116.13 1837.29 1174.3 1860.47 1224.36 1884.12 1273.61 1933.86 1306.35 1989.97 1309.59L2036.32 1309.59 2019.83 1293.66 1990.41 1293.66C1940.65 1290.61 1896.58 1261.58 1875.49 1217.95 1854.86 1173.1 1860.13 1121.08 1889.38 1080.95 1914.64 1049.22 1953.21 1029.99 1994.63 1028.48L2008.33 1028 2010.36 1014.91C2019.97 951.904 2067.7 900.575 2131.54 884.589 2143.49 881.802 2155.74 880.393 2168.04 880.391 2221.79 880.418 2271.88 906.74 2301.09 950.318L2307.2 959.343 2318.14 957.224C2354.68 950.166 2392.62 957.816 2423.17 978.404 2452.66 999.262 2472.5 1030.45 2478.44 1065.28L2480.38 1076.74 2492.27 1078.46C2553.77 1086.88 2596.57 1141.84 2587.85 1201.24 2580.18 1253.57 2534.61 1292.97 2479.9 1294.57L2431.08 1294.57 2414.58 1310.5 2479.91 1310.5C2551.1 1308.71 2607.31 1251.51 2605.46 1182.76 2603.81 1122.02 2557.03 1071.3 2494.75 1062.72Z" stroke="#000000" stroke-width="22.9167" stroke-miterlimit="8" fill-rule="evenodd"/><path d="M2234.63 1425.5 2234.63 1111.11C2234.63 1111.07 2234.67 1111.04 2234.71 1111.04 2234.74 1111.04 2234.76 1111.04 2234.77 1111.06 2271.31 1146.23 2236.43 1111.45 2344.4 1216.56 2350.85 1222.84 2375.74 1228 2356.07 1205.32 2336.4 1182.65 2238.15 1079.77 2226.37 1080.5 2214.59 1081.24 2116.34 1182.65 2096.67 1205.32 2077 1228 2103.5 1221.22 2108.35 1216.56L2217.98 1111.06C2218.01 1111.03 2218.06 1111.03 2218.09 1111.06 2218.11 1111.07 2218.12 1111.09 2218.12 1111.11L2218.12 1425.5 2234.63 1425.5Z" stroke="#000000" stroke-width="22.9167" stroke-miterlimit="8" fill-rule="evenodd"/></g></svg>